<svg
  width="18"
  height="14"
  viewBox="0 0 18 14"
  fill="none"
  xmlns="http://www.w3.org/2000/svg"
>
<path
    fill-rule="evenodd"
    clip-rule="evenodd"
    d="M8.9203 0.578125C7.01071 0.578125 5.47686 2.11765 5.47686 4.03431C5.47686 5.95153 7.01059 7.49119 8.9203 7.49119C10.83 7.49119 12.3637 5.95153 12.3637 4.03431C12.3637 2.11765 10.8299 0.578125 8.9203 0.578125ZM8.9203 1.70312C10.2109 1.70312 11.2429 2.73897 11.2429 4.03431C11.2429 5.33026 10.2109 6.36619 8.9203 6.36619C7.62965 6.36619 6.59771 5.33026 6.59771 4.03431C6.59771 2.73897 7.62974 1.70312 8.9203 1.70312ZM4.7001 1.28453C5.00962 1.28453 5.26053 1.53637 5.26053 1.84703C5.26053 2.15769 5.00962 2.40953 4.7001 2.40953C3.81212 2.40953 3.09193 3.13207 3.09193 4.02297C3.09193 4.91387 3.81212 5.63641 4.7001 5.63641C5.00962 5.63641 5.26053 5.88825 5.26053 6.19891C5.26053 6.50957 5.00962 6.76141 4.7001 6.76141C3.1932 6.76141 1.97109 5.5353 1.97109 4.02297C1.97109 2.51064 3.1932 1.28453 4.7001 1.28453ZM15.8765 4.02297C15.8765 2.51064 14.6544 1.28453 13.1475 1.28453C12.838 1.28453 12.5871 1.53637 12.5871 1.84703C12.5871 2.15769 12.838 2.40953 13.1475 2.40953C14.0355 2.40953 14.7556 3.13207 14.7556 4.02297C14.7556 4.91387 14.0355 5.63641 13.1475 5.63641C12.838 5.63641 12.5871 5.88825 12.5871 6.19891C12.5871 6.50957 12.838 6.76141 13.1475 6.76141C14.6544 6.76141 15.8765 5.5353 15.8765 4.02297ZM15.3152 8.16623C14.9564 8.08495 14.5729 8.02939 14.183 8.0024C13.8742 7.98102 13.6066 8.21494 13.5853 8.52486C13.5641 8.83479 13.7971 9.10336 14.1059 9.12473C14.4395 9.14783 14.7665 9.19521 15.0845 9.26702C15.5789 9.3644 15.9012 9.52582 15.9812 9.69408C16.0414 9.82111 16.0414 9.97045 15.9807 10.099C15.9017 10.2656 15.5821 10.4262 15.0946 10.5268C14.7915 10.5894 14.5962 10.8868 14.6586 11.191C14.7209 11.4953 15.0172 11.6913 15.3204 11.6287C16.126 11.4624 16.7162 11.1659 16.9931 10.5817C17.1984 10.1473 17.1984 9.64352 16.9931 9.21027C16.7143 8.6238 16.114 8.32319 15.3152 8.16623ZM4.26224 8.52486C4.24094 8.21494 3.97336 7.98102 3.66458 8.0024C3.27468 8.02939 2.89123 8.08495 2.51703 8.16948L2.36277 8.20223C1.65468 8.36462 1.11446 8.66305 0.855163 9.21019C0.649036 9.64307 0.649036 10.1477 0.85538 10.5821C1.13105 11.1658 1.7212 11.4624 2.5272 11.6287C2.83037 11.6913 3.12667 11.4953 3.18902 11.191C3.25136 10.8868 3.05613 10.5894 2.75296 10.5268C2.2657 10.4262 1.94635 10.2657 1.86765 10.0991C1.80633 9.97001 1.80633 9.82156 1.86689 9.69438C1.94684 9.52569 2.26887 9.36437 2.74775 9.27027L2.99675 9.21911C3.24497 9.17304 3.49146 9.14205 3.7417 9.12473C4.05048 9.10336 4.28353 8.83479 4.26224 8.52486ZM3.86104 10.8884C3.86104 9.09896 5.70516 8.46966 8.9203 8.46966L9.14809 8.47072C12.2289 8.49977 13.9796 9.13052 13.9796 10.8754C13.9796 12.5791 12.3061 13.2315 9.37011 13.2898L8.9203 13.2941C5.69779 13.2941 3.86104 12.6759 3.86104 10.8884ZM12.8587 10.8754C12.8587 10.0424 11.5282 9.59466 8.9203 9.59466C6.31492 9.59466 4.98189 10.0496 4.98189 10.8884C4.98189 11.7214 6.31195 12.1691 8.9203 12.1691C11.5249 12.1691 12.8587 11.7138 12.8587 10.8754Z"
    fill="currentColor"
  />
</svg>
