<svg
  width="19"
  height="18"
  viewBox="0 0 19 18"
  fill="none"
  xmlns="http://www.w3.org/2000/svg"
>
<path
    fill-rule="evenodd"
    clip-rule="evenodd"
    d="M6.2097 1.5H3.85574C2.58113 1.5 1.54981 2.50683 1.54981 3.74664V6.04472C1.54981 7.28402 2.58135 8.29136 3.85574 8.29136H6.2097C7.48409 8.29136 8.51563 7.28402 8.51563 6.04472V3.74664C8.51563 2.50683 7.48431 1.5 6.2097 1.5ZM3.85574 2.54651H6.20971C6.88505 2.54651 7.43437 3.08279 7.43437 3.74664V6.04472C7.43437 6.70813 6.88476 7.24485 6.20971 7.24485H3.85574C3.1807 7.24485 2.63109 6.70813 2.63109 6.04472V3.74664C2.63109 3.08279 3.18041 2.54651 3.85574 2.54651ZM14.7428 1.5H12.3881C11.1135 1.5 10.0821 2.50683 10.0821 3.74664V6.04472C10.0821 7.28402 11.1137 8.29136 12.3881 8.29136H14.7428C16.0166 8.29136 17.048 7.28388 17.048 6.04472V3.74664C17.048 2.50698 16.0168 1.5 14.7428 1.5ZM12.3881 2.54651H14.7428C15.4175 2.54651 15.9667 3.08287 15.9667 3.74664V6.04472C15.9667 6.70805 15.4172 7.24485 14.7428 7.24485H12.3881C11.713 7.24485 11.1634 6.70813 11.1634 6.04472V3.74664C11.1634 3.08279 11.7127 2.54651 12.3881 2.54651ZM3.85574 9.70864H6.2097C7.48446 9.70864 8.51563 10.7156 8.51563 11.956V14.2534C8.51563 15.4932 7.48431 16.5 6.2097 16.5H3.85574C2.58113 16.5 1.54981 15.4932 1.54981 14.2534V11.956C1.54981 10.7156 2.58098 9.70864 3.85574 9.70864ZM6.20971 10.7551H3.85574C3.18033 10.7551 2.63109 11.2915 2.63109 11.956V14.2534C2.63109 14.9172 3.18041 15.4535 3.85574 15.4535H6.20971C6.88505 15.4535 7.43437 14.9172 7.43437 14.2534V11.956C7.43437 11.2915 6.88513 10.7551 6.20971 10.7551ZM14.7428 9.70864H12.3881C11.1133 9.70864 10.0821 10.7156 10.0821 11.956V14.2534C10.0821 15.4932 11.1135 16.5 12.3881 16.5H14.7428C16.0168 16.5 17.048 15.493 17.048 14.2534V11.956C17.048 10.7158 16.0169 9.70864 14.7428 9.70864ZM12.3881 10.7551H14.7428C15.4175 10.7551 15.9667 11.2916 15.9667 11.956V14.2534C15.9667 14.9171 15.4175 15.4535 14.7428 15.4535H12.3881C11.7127 15.4535 11.1634 14.9172 11.1634 14.2534V11.956C11.1634 11.2915 11.7127 10.7551 12.3881 10.7551Z"
    fill="currentColor"
  />
</svg>
