<svg
  width="18"
  height="18"
  viewBox="0 0 18 18"
  fill="none"
  xmlns="http://www.w3.org/2000/svg"
>
<path
    fill-rule="evenodd"
    clip-rule="evenodd"
    d="M8.49826 1.51611C10.2827 1.51611 11.7391 2.92156 11.8209 4.68579L11.8245 4.84236V5.54211C11.8245 5.85277 11.5727 6.10461 11.262 6.10461C10.9772 6.10461 10.7419 5.893 10.7046 5.61844L10.6995 5.54211V4.84236C10.6995 3.67019 9.78299 2.71181 8.62758 2.64485L8.49826 2.64111H4.84201C3.67047 2.64111 2.7122 3.55771 2.64524 4.71305L2.64151 4.84236V13.1899C2.64151 14.3619 3.55793 15.3204 4.71275 15.3874L4.84201 15.3911H8.50576C9.67378 15.3911 10.629 14.4779 10.6958 13.3269L10.6995 13.1981V12.4909C10.6995 12.1802 10.9513 11.9284 11.262 11.9284C11.5468 11.9284 11.7821 12.14 11.8194 12.4145L11.8245 12.4909V13.1981C11.8245 14.9765 10.4244 16.4284 8.66652 16.5123L8.50576 16.5161H4.84201C3.05817 16.5161 1.60189 15.1105 1.52013 13.3464L1.51651 13.1899V4.84236C1.51651 3.05807 2.92183 1.60151 4.68549 1.51973L4.84201 1.51611H8.49826ZM16.7464 8.60998C16.8532 8.71236 16.9196 8.85644 16.9196 9.01604C16.9196 9.1773 16.8518 9.32271 16.743 9.42527L14.5578 11.6015C14.3377 11.8207 13.9816 11.82 13.7623 11.5999C13.5631 11.3998 13.5455 11.0872 13.7094 10.8674L13.764 10.8044L14.994 9.57854H7.32638C7.01572 9.57854 6.76388 9.3267 6.76388 9.01604C6.76388 8.73126 6.97549 8.49592 7.25005 8.45867L7.32638 8.45354H14.9953L13.764 7.22834C13.5639 7.02909 13.5451 6.71663 13.708 6.49606L13.7623 6.43285C13.9615 6.23271 14.274 6.21386 14.4946 6.37676L14.5578 6.43108L16.7464 8.60998Z"
    fill="currentColor"
  />
</svg>
