<svg width="12" height="12" viewBox="0 0 12 12" fill="none" xmlns="http://www.w3.org/2000/svg">
<path fill-rule="evenodd" clip-rule="evenodd" d="M5.77336 0.166664C2.67685 0.166664 0.166626 2.62144 0.166626 5.64957C0.166626 8.67769 2.67685 11.1325 5.77336 11.1325C7.09773 11.1325 8.31486 10.6834 9.27421 9.93254L11.0966 11.71L11.1451 11.7509C11.3143 11.8733 11.5541 11.8594 11.7072 11.7093C11.8757 11.5441 11.8753 11.2768 11.7065 11.1121L9.90549 9.35549C10.8212 8.37962 11.3801 7.07842 11.3801 5.64957C11.3801 2.62144 8.86987 0.166664 5.77336 0.166664ZM5.77335 1.01118C8.39292 1.01118 10.5165 3.08785 10.5165 5.64956C10.5165 8.21127 8.39292 10.288 5.77335 10.288C3.15379 10.288 1.03021 8.21127 1.03021 5.64956C1.03021 3.08785 3.15379 1.01118 5.77335 1.01118Z" fill="#A6ABB2"/>
</svg>
